#!OML:ASF E:\Steps\Project 1\Capture day 1\Session 2\Subject.ASF
:FULLY-SPECIFIED
:DEGREES
63
root -1.34304 16.2716 21.3406 -153.666 1.32942 180.727
lowerback -27.3475 -2.85663 -5.44195
upperback -0.400203 -1.70246 0.790991
thorax 14.3523 -0.974237 3.24659
lowerneck -0.699981 -6.46932 -1.1481
upperneck 15.6398 -8.49022 4.40674
head 5.05581 -3.6276 1.18296
rclavicle 6.4605e-015 -8.34896e-015
rhumerus -40.0062 -16.0536 -79.5929
rradius 36.1089
rwrist -4.90657
rhand -7.16411 -56.0809
rfingers 7.12502
rthumb 18.713 -85.2008
lclavicle 6.4605e-015 -8.34896e-015
lhumerus -30.1416 3.13769 82.398
lradius 23.629
lwrist -2.48746
lhand -22.6746 -13.846
lfingers 7.12502
lthumb 3.75736 16.1006
rfemur -26.4917 6.63693 21.2536
rtibia 8.6354
rfoot -16.9609 2.03522
rtoes -16.2474
lfemur -27.8448 -9.29112 -20.1151
ltibia 13.7368
lfoot -10.5537 4.71322
ltoes -35.7148
64
root -1.36808 16.2829 21.3606 -153.621 1.39943 180.481
lowerback -27.1978 -2.86769 -5.48506
upperback -0.731746 -1.6946 0.563613
thorax 14.6435 -0.992439 3.20933
lowerneck -0.764852 -6.57657 -0.951407
upperneck 15.6488 -8.62181 4.1557
head 5.0543 -3.69854 1.06548
rclavicle -1.55052e-014 -7.95139e-016
rhumerus -39.8243 -15.9653 -79.7001
rradius 36.1437
rwrist -5.15328
rhand -6.61788 -57.6495
rfingers 7.12502
rthumb 19.2383 -86.718
lclavicle -1.55052e-014 -7.95139e-016
lhumerus -30.0346 2.97205 82.3801
lradius 23.7185
lwrist -2.3916
lhand -22.6131 -13.9577
lfingers 7.12502
lthumb 3.81673 15.9879
rfemur -26.796 5.79526 21.0951
rtibia 9.01287
rfoot -17.0027 2.80586
rtoes -16.2638
lfemur -28.1278 -9.58555 -20.5175
ltibia 14.1937
lfoot -10.7416 4.82568
ltoes -35.4977
65
root -1.3409 16.2844 21.3637 -153.68 1.74215 180.791
lowerback -27.1184 -2.82764 -5.72388
upperback -0.358657 -1.6009 0.777591
thorax 14.2865 -0.953168 3.42784
lowerneck -1.01343 -6.60812 -0.953843
upperneck 16.0088 -8.6516 4.03905
head 5.20353 -3.70231 1.01622
rclavicle 1.59028e-015 1.59028e-014
rhumerus -39.7979 -15.744 -79.8017
rradius 36.2685
rwrist -5.23113
rhand -6.39137 -58.3425
rfingers 7.12502
rthumb 19.4561 -87.3891
lclavicle 1.59028e-015 1.59028e-014
lhumerus -30.0858 3.04593 82.2759
lradius 23.8026
lwrist -2.50366
lhand -22.4947 -14.037
lfingers 7.12502
lthumb 3.9311 15.9065
rfemur -26.9852 7.20646 21.0836
rtibia 9.2728
rfoot -17.0529 1.79131
rtoes -16.9622
lfemur -28.3055 -9.3178 -19.9345
ltibia 14.511
lfoot -10.8459 5.19879
ltoes -35.7415
66
root -1.35343 16.2841 21.3733 -153.688 1.77747 180.745
lowerback -26.9398 -2.82959 -5.6852
upperback -0.730354 -1.61558 0.608681
thorax 14.5029 -0.97482 3.41048
lowerneck -1.06984 -6.55819 -1.17127
upperneck 16.0962 -8.60485 4.28918
head 5.25915 -3.6712 1.1273
rclavicle -2.13694e-014 -6.75868e-015
rhumerus -39.8474 -15.6063 -79.9252
rradius 36.3227
rwrist -5.45733
rhand -6.94576 -58.1406
rfingers 7.12502
rthumb 18.923 -87.2401
lclavicle -2.13694e-014 -6.75868e-015
lhumerus -30.1731 3.1805 82.1425
lradius 23.8813
lwrist -2.71195
lhand -22.3788 -14.2386
lfingers 7.12502
lthumb 4.04294 15.7028
rfemur -27.1058 7.0431 21.0236
rtibia 9.50285
rfoot -17.1499 2.07946
rtoes -16.3435
lfemur -28.4592 -9.55207 -20.0259
ltibia 14.8127
lfoot -10.9321 5.43329
ltoes -36.2295
67
root -1.34375 16.2806 21.3709 -153.914 1.82389 181.065
lowerback -26.699 -2.79166 -5.60024
upperback -0.665924 -1.63536 0.680896
thorax 14.4481 -0.989123 3.43813
lowerneck -1.07309 -6.48447 -1.28263
upperneck 16.0425 -8.52666 4.47868
head 5.2535 -3.63032 1.2079
rclavicle -9.44227e-015 1.47101e-014
rhumerus -39.8661 -15.5814 -80.0405
rradius 36.3805
rwrist -5.49369
rhand -7.22773 -58.0284
rfingers 7.12502
rthumb 18.6518 -87.1542
lclavicle -9.44227e-015 1.47101e-014
lhumerus -30.2526 3.17925 82.001
lradius 23.9704
lwrist -2.66292
lhand -22.0812 -14.5643
lfingers 7.12502
lthumb 4.3304 15.3715
rfemur -26.9611 7.68165 21.2732
rtibia 9.72447
rfoot -17.3129 1.71765
rtoes -15.8266
lfemur -28.3159 -9.54266 -19.5847
ltibia 14.9916
lfoot -11.1347 5.66962
ltoes -36.3932
68
root -1.35689 16.2837 21.3774 -153.928 1.86746 180.91
lowerback -26.698 -2.89014 -5.82064
upperback -0.595408 -1.70545 0.690349
thorax 14.5478 -1.04431 3.54776
lowerneck -1.11138 -6.50818 -1.38575
upperneck 15.8829 -8.57353 4.52389
head 5.21838 -3.66845 1.23531
rclavicle 7.95139e-016 -5.56597e-015
rhumerus -39.7038 -15.5404 -79.9686
rradius 36.4424
rwrist -5.40883
rhand -7.61749 -56.7882
rfingers 7.12502
rthumb 18.2769 -85.9495
lclavicle 7.95139e-016 -5.56597e-015
lhumerus -30.1991 3.09126 82.0607
lradius 24.0958
lwrist -2.31478
lhand -21.6839 -14.6131
lfingers 7.12502
lthumb 4.71402 15.3145
rfemur -27.135 7.30162 21.1576
rtibia 10.082
rfoot -17.4737 1.98787
rtoes -15.9513
lfemur -28.4399 -9.74916 -19.8256
ltibia 15.2867
lfoot -11.3817 5.68626
ltoes -36.2372
69
root -1.34863 16.2811 21.3784 -154.155 1.93483 181.227
lowerback -26.5173 -2.87404 -5.82965
upperback -0.47503 -1.73963 0.850095
thorax 14.6014 -1.08311 3.72498
lowerneck -1.09783 -6.63953 -1.39141
upperneck 15.749 -8.75601 4.47687
head 5.17888 -3.77147 1.21311
rclavicle -1.71949e-014 -5.56597e-015
rhumerus -39.6229 -15.549 -79.8681
rradius 36.5317
rwrist -5.18918
rhand -9.15605 -53.3892
rfingers 7.12502
rthumb 16.7962 -82.6827
lclavicle -1.71949e-014 -5.56597e-015
lhumerus -30.1755 2.91299 82.1386
lradius 24.237
lwrist -2.02652
lhand -21.5084 -14.3197
lfingers 7.12502
lthumb 4.88346 15.604
rfemur -27.04 7.85171 21.42
rtibia 10.3813
rfoot -17.6126 1.6819
rtoes -15.3449
lfemur -28.3485 -9.62226 -19.4133
ltibia 15.5648
lfoot -11.6093 5.78362
ltoes -36.4184
